<?xml version="1.0" standalone="no"?>
<!DOCTYPE svg PUBLIC "-//W3C//DTD SVG 20010904//EN"
 "http://www.w3.org/TR/2001/REC-SVG-20010904/DTD/svg10.dtd">
<svg version="1.0" xmlns="http://www.w3.org/2000/svg"
 width="180.000000pt" height="180.000000pt" viewBox="0 0 180.000000 180.000000"
 preserveAspectRatio="xMidYMid meet">
<metadata>
Created by potrace 1.11, written by Peter Selinger 2001-2013
</metadata>
<g transform="translate(0.000000,180.000000) scale(0.100000,-0.100000)"
fill="#000000" stroke="none">
<path d="M847 1702 c-26 -9 -60 -29 -75 -44 -27 -25 -167 -260 -474 -798 -218
-381 -261 -466 -265 -523 -6 -115 84 -206 223 -223 97 -12 1301 -7 1359 6 97
22 157 85 161 171 3 71 -9 107 -78 244 -64 126 -429 797 -517 949 -28 49 -51
91 -51 93 0 2 -14 25 -31 50 -22 31 -47 52 -83 69 -60 28 -103 30 -169 6z
m160 -42 c21 -20 49 -59 63 -86 14 -27 37 -69 51 -94 14 -25 43 -76 64 -115
21 -38 120 -218 220 -400 257 -466 333 -614 341 -662 9 -59 -10 -99 -57 -123
-35 -19 -64 -20 -436 -22 -645 -2 -1036 2 -1080 14 -23 5 -56 23 -75 38 -29
25 -33 33 -32 76 0 44 13 72 130 274 72 124 222 387 334 585 277 491 275 487
303 513 29 28 92 51 118 45 10 -3 35 -22 56 -43z"/>
<path d="M899 1022 c-192 -101 -508 -278 -526 -295 -20 -18 -22 -30 -25 -148
-3 -140 -4 -139 55 -131 l28 4 -22 24 -21 23 27 70 c15 39 30 71 33 71 9 -1
93 -19 115 -26 12 -4 17 0 17 15 0 20 6 21 90 22 50 1 100 2 113 2 21 1 22 -2
27 -103 l5 -104 38 -1 c48 -1 54 8 28 44 l-20 28 58 81 c59 79 60 80 99 76
l40 -4 72 98 c40 53 97 120 126 148 35 32 54 58 54 73 0 12 -3 21 -7 19 -5 -2
-29 -13 -55 -26 -26 -12 -57 -24 -70 -26 -30 -5 -76 19 -115 60 -41 44 -89 46
-164 6z m345 -85 c-13 -36 -135 -62 -161 -36 -22 22 -3 39 36 33 20 -3 54 -1
76 4 55 14 55 14 49 -1z"/>
<path d="M256 365 c-4 -11 0 -12 18 -5 35 13 51 -4 52 -52 0 -24 -3 -48 -7
-54 -6 -6 6 -10 34 -10 23 -1 34 1 25 3 -15 4 -18 15 -18 63 0 58 0 59 27 54
15 -3 30 -7 35 -10 4 -3 8 1 8 9 0 21 -166 22 -174 2z"/>
<path d="M466 352 c13 -9 15 -95 2 -103 -5 -3 8 -6 29 -6 21 -1 32 1 26 4 -16
6 -17 43 -2 43 6 0 24 -11 41 -25 16 -14 41 -25 56 -24 16 0 21 3 12 6 -8 3
-28 15 -43 26 -27 19 -28 20 -10 39 17 19 17 20 -2 34 -10 8 -41 14 -69 14
-28 0 -46 -4 -40 -8z m83 -21 c8 -15 7 -20 -5 -25 -27 -10 -34 -7 -34 19 0 30
25 34 39 6z"/>
<path d="M655 301 l0 -57 34 -1 c21 0 29 2 20 8 -15 9 -20 66 -8 90 6 13 2 16
-19 17 -26 0 -27 -1 -27 -57z"/>
<path d="M786 314 c-16 -25 -35 -52 -43 -59 -12 -13 -11 -15 11 -13 13 1 24 5
24 8 -3 36 47 43 75 10 9 -11 27 -20 39 -20 14 0 18 3 12 8 -6 4 -26 31 -44
60 -17 28 -35 52 -38 52 -4 0 -20 -21 -36 -46z m44 -15 c0 -5 -7 -9 -15 -9
-15 0 -20 12 -9 23 8 8 24 -1 24 -14z"/>
<path d="M946 353 c-3 -3 -6 -28 -6 -54 0 -29 -5 -49 -12 -52 -7 -2 2 -4 19
-5 29 -1 32 2 23 17 -12 23 -9 61 5 54 5 -4 29 -19 51 -34 61 -41 67 -41 70
11 2 24 6 50 8 56 3 7 -6 12 -20 12 -13 0 -21 -5 -18 -10 3 -5 8 -23 11 -39 4
-29 3 -30 -19 -18 -13 7 -36 22 -53 34 -42 31 -51 35 -59 28z"/>
<path d="M1183 350 c-12 -5 -27 -18 -33 -30 -16 -30 9 -65 51 -74 37 -7 55 2
20 11 -25 6 -44 44 -35 68 9 23 54 30 83 14 36 -20 38 -52 5 -78 -31 -24 -16
-28 25 -6 32 16 42 34 34 63 -9 37 -94 55 -150 32z"/>
<path d="M1380 306 c0 -35 -5 -56 -12 -59 -7 -2 3 -4 22 -4 19 -1 29 1 23 4
-7 3 -13 20 -13 39 l0 34 62 -40 c34 -22 63 -38 66 -36 2 3 5 30 7 60 2 44 -1
56 -12 56 -12 0 -14 -10 -11 -40 2 -22 2 -40 0 -40 -2 0 -30 18 -62 40 -32 22
-61 40 -64 40 -4 0 -6 -24 -6 -54z"/>
</g>
</svg>
